grf
version=1
nRows=16
nColumns=46
inDegrees=yes
endheader
time	ground_force_1_vx	ground_force_1_vy	ground_force_1_vz	ground_force_1_px	ground_force_1_py	ground_force_1_pz	ground_moment_1_mx	ground_moment_1_my	ground_moment_1_mz	ground_force_2_vx	ground_force_2_vy	ground_force_2_vz	ground_force_2_px	ground_force_2_py	ground_force_2_pz	ground_moment_2_mx	ground_moment_2_my	ground_moment_2_mz	ground_force_3_vx	ground_force_3_vy	ground_force_3_vz	ground_force_3_px	ground_force_3_py	ground_force_3_pz	ground_moment_3_mx	ground_moment_3_my	ground_moment_3_mz	ground_force_4_vx	ground_force_4_vy	ground_force_4_vz	ground_force_4_px	ground_force_4_py	ground_force_4_pz	ground_moment_4_mx	ground_moment_4_my	ground_moment_4_mz	ground_force_5_vx	ground_force_5_vy	ground_force_5_vz	ground_force_5_px	ground_force_5_py	ground_force_5_pz	ground_moment_5_mx	ground_moment_5_my	ground_moment_5_mz
0.000000	0.000000	0.000000	0.000000	0.000000	0.000000	0.000000	0.000000	0.000000	0.000000	0.000000	0.000000	0.000000	0.000000	0.000000	0.000000	0.000000	0.000000	0.000000	0.000000	0.000000	0.000000	0.000000	0.000000	0.000000	0.000000	0.000000	0.000000	4.757732	523.022244	-58.370856	0.195256	0.000000	-1.071998	-0.000000	5.509850	0.000000	-0.516440	517.777339	56.365318	0.206333	0.000000	-1.398257	0.000000	-5.279609	-0.000000
0.000500	0.000000	0.000000	0.000000	0.000000	0.000000	0.000000	0.000000	0.000000	0.000000	0.000000	0.000000	0.000000	0.000000	0.000000	0.000000	0.000000	0.000000	0.000000	0.000000	0.000000	0.000000	0.000000	0.000000	0.000000	0.000000	0.000000	0.000000	4.718492	523.051197	-58.410279	0.195264	0.000000	-1.071949	-0.000000	5.512288	0.000000	-0.567364	517.845310	56.367449	0.206339	0.000000	-1.398242	0.000000	-5.274700	-0.000000
0.001000	0.000000	0.000000	0.000000	0.000000	0.000000	0.000000	0.000000	0.000000	0.000000	0.000000	0.000000	0.000000	0.000000	0.000000	0.000000	0.000000	0.000000	0.000000	0.000000	0.000000	0.000000	0.000000	0.000000	0.000000	0.000000	0.000000	0.000000	4.678768	523.079147	-58.449556	0.195273	0.000000	-1.071900	-0.000000	5.514685	0.000000	-0.618311	517.912661	56.369755	0.206346	0.000000	-1.398227	0.000000	-5.269872	-0.000000
0.001500	0.000000	0.000000	0.000000	0.000000	0.000000	0.000000	0.000000	0.000000	0.000000	0.000000	0.000000	0.000000	0.000000	0.000000	0.000000	0.000000	0.000000	0.000000	0.000000	0.000000	0.000000	0.000000	0.000000	0.000000	0.000000	0.000000	0.000000	4.638655	523.105971	-58.488584	0.195283	0.000000	-1.071850	-0.000000	5.517033	0.000000	-0.669147	517.979211	56.372206	0.206354	0.000000	-1.398213	0.000000	-5.265141	-0.000000
0.002000	0.000000	0.000000	0.000000	0.000000	0.000000	0.000000	0.000000	0.000000	0.000000	0.000000	0.000000	0.000000	0.000000	0.000000	0.000000	0.000000	0.000000	0.000000	0.000000	0.000000	0.000000	0.000000	0.000000	0.000000	0.000000	0.000000	0.000000	4.598240	523.131546	-58.527278	0.195294	0.000000	-1.071801	-0.000000	5.519323	0.000000	-0.719741	518.044802	56.374782	0.206363	0.000000	-1.398200	0.000000	-5.260519	-0.000000
0.002500	0.000000	0.000000	0.000000	0.000000	0.000000	0.000000	0.000000	0.000000	0.000000	0.000000	0.000000	0.000000	0.000000	0.000000	0.000000	0.000000	0.000000	0.000000	0.000000	0.000000	0.000000	0.000000	0.000000	0.000000	0.000000	0.000000	0.000000	4.557602	523.155740	-58.565558	0.195306	0.000000	-1.071752	-0.000000	5.521547	0.000000	-0.769965	518.109295	56.377472	0.206372	0.000000	-1.398187	0.000000	-5.256019	-0.000000
0.003000	0.000000	0.000000	0.000000	0.000000	0.000000	0.000000	0.000000	0.000000	0.000000	0.000000	0.000000	0.000000	0.000000	0.000000	0.000000	0.000000	0.000000	0.000000	0.000000	0.000000	0.000000	0.000000	0.000000	0.000000	0.000000	0.000000	0.000000	4.516811	523.178422	-58.603351	0.195318	0.000000	-1.071704	-0.000000	5.523697	0.000000	-0.819702	518.172561	56.380270	0.206382	0.000000	-1.398175	0.000000	-5.251652	-0.000000
0.003500	0.000000	0.000000	0.000000	0.000000	0.000000	0.000000	0.000000	0.000000	0.000000	0.000000	0.000000	0.000000	0.000000	0.000000	0.000000	0.000000	0.000000	0.000000	0.000000	0.000000	0.000000	0.000000	0.000000	0.000000	0.000000	0.000000	0.000000	4.475926	523.199457	-58.640592	0.195332	0.000000	-1.071656	-0.000000	5.525764	0.000000	-0.868838	518.234491	56.383177	0.206392	0.000000	-1.398164	0.000000	-5.247427	-0.000000
0.004000	0.000000	0.000000	0.000000	0.000000	0.000000	0.000000	0.000000	0.000000	0.000000	0.000000	0.000000	0.000000	0.000000	0.000000	0.000000	0.000000	0.000000	0.000000	0.000000	0.000000	0.000000	0.000000	0.000000	0.000000	0.000000	0.000000	0.000000	4.435004	523.218726	-58.677226	0.195346	0.000000	-1.071609	-0.000000	5.527743	0.000000	-0.917273	518.295001	56.386187	0.206404	0.000000	-1.398154	0.000000	-5.243348	-0.000000
0.004500	0.000000	0.000000	0.000000	0.000000	0.000000	0.000000	0.000000	0.000000	0.000000	0.000000	0.000000	0.000000	0.000000	0.000000	0.000000	0.000000	0.000000	0.000000	0.000000	0.000000	0.000000	0.000000	0.000000	0.000000	0.000000	0.000000	0.000000	4.394096	523.236124	-58.713208	0.195362	0.000000	-1.071562	-0.000000	5.529628	0.000000	-0.964917	518.354024	56.389298	0.206416	0.000000	-1.398145	0.000000	-5.239419	-0.000000
0.005000	0.000000	0.000000	0.000000	0.000000	0.000000	0.000000	0.000000	0.000000	0.000000	0.000000	0.000000	0.000000	0.000000	0.000000	0.000000	0.000000	0.000000	0.000000	0.000000	0.000000	0.000000	0.000000	0.000000	0.000000	0.000000	0.000000	0.000000	4.353250	523.251568	-58.748498	0.195378	0.000000	-1.071516	-0.000000	5.531416	0.000000	-1.011688	518.411506	56.392506	0.206429	0.000000	-1.398136	0.000000	-5.235641	-0.000000
0.005500	0.000000	0.000000	0.000000	0.000000	0.000000	0.000000	0.000000	0.000000	0.000000	0.000000	0.000000	0.000000	0.000000	0.000000	0.000000	0.000000	0.000000	0.000000	0.000000	0.000000	0.000000	0.000000	0.000000	0.000000	0.000000	0.000000	0.000000	4.312514	523.264982	-58.783061	0.195395	0.000000	-1.071471	-0.000000	5.533106	0.000000	-1.057511	518.467399	56.395806	0.206442	0.000000	-1.398128	0.000000	-5.232013	-0.000000
0.006000	0.000000	0.000000	0.000000	0.000000	0.000000	0.000000	0.000000	0.000000	0.000000	0.000000	0.000000	0.000000	0.000000	0.000000	0.000000	0.000000	0.000000	0.000000	0.000000	0.000000	0.000000	0.000000	0.000000	0.000000	0.000000	0.000000	0.000000	4.271931	523.276289	-58.816863	0.195413	0.000000	-1.071427	-0.000000	5.534696	0.000000	-1.102318	518.521665	56.399193	0.206457	0.000000	-1.398121	0.000000	-5.228535	-0.000000
0.006500	0.000000	0.000000	0.000000	0.000000	0.000000	0.000000	0.000000	0.000000	0.000000	0.000000	0.000000	0.000000	0.000000	0.000000	0.000000	0.000000	0.000000	0.000000	0.000000	0.000000	0.000000	0.000000	0.000000	0.000000	0.000000	0.000000	0.000000	4.231544	523.285410	-58.849872	0.195431	0.000000	-1.071383	-0.000000	5.536184	0.000000	-1.146048	518.574270	56.402660	0.206472	0.000000	-1.398115	0.000000	-5.225206	-0.000000
0.007000	0.000000	0.000000	0.000000	0.000000	0.000000	0.000000	0.000000	0.000000	0.000000	0.000000	0.000000	0.000000	0.000000	0.000000	0.000000	0.000000	0.000000	0.000000	0.000000	0.000000	0.000000	0.000000	0.000000	0.000000	0.000000	0.000000	0.000000	4.191389	523.292263	-58.882060	0.195451	0.000000	-1.071341	-0.000000	5.537567	0.000000	-1.188654	518.625188	56.406206	0.206488	0.000000	-1.398110	0.000000	-5.222025	-0.000000
0.007500	0.000000	0.000000	0.000000	0.000000	0.000000	0.000000	0.000000	0.000000	0.000000	0.000000	0.000000	0.000000	0.000000	0.000000	0.000000	0.000000	0.000000	0.000000	0.000000	0.000000	0.000000	0.000000	0.000000	0.000000	0.000000	0.000000	0.000000	4.151506	523.296779	-58.913398	0.195471	0.000000	-1.071299	-0.000000	5.538843	0.000000	-1.230100	518.674400	56.409829	0.206504	0.000000	-1.398105	0.000000	-5.218988	-0.000000
